<svg id="Layer_1" data-name="Layer 1" xmlns="http://www.w3.org/2000/svg" viewBox="0 0 24 24"><path d="M20.1119,2.6529H17.2791v-.628a.64.64,0,0,0-.64-.64H14.163a2.369,2.369,0,0,0-4.3095,0H7.3614a.64.64,0,0,0-.64.64v.628H3.8881a.64.64,0,0,0-.64.64V23.36a.64.64,0,0,0,.64.64H20.1119a.64.64,0,0,0,.64-.64V3.2933A.64.64,0,0,0,20.1119,2.6529Zm-12.11.0124h2.3123a.64.64,0,0,0,.6278-.5136,1.0883,1.0883,0,0,1,2.1327,0,.64.64,0,0,0,.6277.5136h2.2959V3.9214H8.0018Zm11.47,20.0539H4.5285V3.9338H6.7209v.628a.64.64,0,0,0,.64.64h9.2772a.64.64,0,0,0,.64-.64v-.628h2.1924Z"/><path d="M17.4852,19.0187H6.5148a.64.64,0,0,1-.5547-.9606l5.4852-9.5007a.6406.6406,0,0,1,1.1094,0L18.04,18.0581a.64.64,0,0,1-.5547.9606ZM7.6239,17.7379h8.7522L12,10.1584Z"/><path d="M12,17.2372a.64.64,0,0,1-.64-.64.58.58,0,0,1,.0121-.1251.6389.6389,0,0,1,.0362-.12.6966.6966,0,0,1,.0587-.11.5635.5635,0,0,1,.08-.0978.6417.6417,0,0,1,.9052,0,.5064.5064,0,0,1,.08.0978.5146.5146,0,0,1,.0586.11.6428.6428,0,0,1,.0377.12.6925.6925,0,0,1,.0121.1251.72.72,0,0,1-.0121.125.6337.6337,0,0,1-.0377.119.5254.5254,0,0,1-.0586.1115.5571.5571,0,0,1-.08.0963A.6437.6437,0,0,1,12,17.2372Z" fill="#e74c3c"/><path d="M12,15.5792a.64.64,0,0,1-.64-.64V12.3273a.64.64,0,0,1,1.2809,0v2.6115A.64.64,0,0,1,12,15.5792Z" fill="#e74c3c"/><path d="M8.0018,3.9214h7.9964V2.6653H13.7024a.64.64,0,0,1-.6278-.5136,1.0883,1.0883,0,0,0-2.1327,0,.64.64,0,0,1-.6278.5136H8.0018Z" fill="#2b96f0"/></svg>