<svg id="Layer_1" data-name="Layer 1" xmlns="http://www.w3.org/2000/svg" viewBox="0 0 24 24"><path d="M20.1119,2.6529H17.2791v-.628a.64.64,0,0,0-.64-.64H14.1631a2.3692,2.3692,0,0,0-4.31,0H7.3614a.64.64,0,0,0-.64.64v.628H3.8881a.64.64,0,0,0-.64.64V23.36a.64.64,0,0,0,.64.64H20.1119a.64.64,0,0,0,.64-.64V3.2933A.64.64,0,0,0,20.1119,2.6529Zm-12.11.0124h2.3123a.6405.6405,0,0,0,.6278-.5136,1.0883,1.0883,0,0,1,2.1327,0,.6405.6405,0,0,0,.6278.5136h2.2959V3.9214H8.0018Zm11.47,20.0539H4.5286V3.9338H6.721v.628a.64.64,0,0,0,.64.64h9.2773a.64.64,0,0,0,.64-.64v-.628h2.1924Z"/><path d="M17.0513,16.3614h-.4036A5.3935,5.3935,0,0,0,10.22,8.5381a.64.64,0,0,0,.4226,1.2091,4.1129,4.1129,0,0,1,5.2457,5.2146.6389.6389,0,0,0-1.1855.3322v1.7078c0,.0174.0038.0338.0052.0508a.6483.6483,0,0,0,.0072.0723.6234.6234,0,0,0,.0195.0667c.0055.0178.0094.0358.0165.0531a.6182.6182,0,0,0,.0349.0671c.008.0145.0144.03.0236.0435a.6433.6433,0,0,0,.0662.0818l.0127.0157.0008.0006a.641.641,0,0,0,.0978.0806c.0152.01.0317.017.0475.0258a.6374.6374,0,0,0,.0628.0332.6309.6309,0,0,0,.07.0216c.0167.0049.0326.0115.05.0149a.64.64,0,0,0,.1264.0129h1.7075a.64.64,0,0,0,0-1.2809Z" fill="#e74c3c"/><path d="M13.2289,17.5511a4.1124,4.1124,0,0,1-5.1352-5.2029.64.64,0,0,0,1.1725-.3561V10.2845l0-.0018a.6409.6409,0,0,0-.0126-.125c-.0036-.018-.01-.0344-.0156-.0518a.6285.6285,0,0,0-.0211-.068.6139.6139,0,0,0-.0313-.0589c-.0094-.0172-.0169-.035-.0279-.0514a.6426.6426,0,0,0-.08-.0966l-.0013-.0016c-.01-.01-.0209-.0163-.0311-.0252A.6494.6494,0,0,0,8.98,9.7514a.6079.6079,0,0,0-.0566-.0307c-.0179-.01-.0348-.02-.0536-.0279a.6261.6261,0,0,0-.0706-.0219c-.0163-.0047-.032-.0109-.0489-.0143a.634.634,0,0,0-.1116-.0112l-.013-.0013H6.918a.64.64,0,0,0,0,1.2808h.4168a5.3937,5.3937,0,0,0,6.2762,7.8487.64.64,0,1,0-.3821-1.2225Z" fill="#e74c3c"/><path d="M8.0018,3.9214h7.9965V2.6653H13.7024a.6405.6405,0,0,1-.6278-.5136,1.0883,1.0883,0,0,0-2.1327,0,.6405.6405,0,0,1-.6278.5136H8.0018Z" fill="#2b96f0"/></svg>