<svg id="Layer_1" data-name="Layer 1" xmlns="http://www.w3.org/2000/svg" viewBox="0 0 24 24"><path d="M10.6473,24a.64.64,0,0,1,0-1.2808,10.7192,10.7192,0,1,0,0-21.4384.64.64,0,1,1,0-1.2808,12,12,0,1,1,0,24Z"/><path d="M13.6572,7.7171a2.5646,2.5646,0,0,0-2.5616,2.5616v3.4424a2.5617,2.5617,0,0,0,5.1233,0V10.2787A2.5646,2.5646,0,0,0,13.6572,7.7171Zm1.2809,6.004a1.2809,1.2809,0,0,1-2.5617,0V10.2787a1.2809,1.2809,0,0,1,2.5617,0Z" fill="#e74c3c"/><path d="M10.1991,10.1787A2.4645,2.4645,0,0,0,7.7374,7.7171h-.2a2.4644,2.4644,0,0,0-2.4617,2.4616.64.64,0,1,0,1.2808,0A1.1822,1.1822,0,0,1,7.5374,8.9979h.2a1.1808,1.1808,0,1,1,0,2.3616h-.1a.64.64,0,0,0,0,1.2808h.1a1.1808,1.1808,0,0,1,0,2.3616h-.2a1.1822,1.1822,0,0,1-1.1809-1.1808.64.64,0,0,0-1.2808,0,2.4644,2.4644,0,0,0,2.4617,2.4616h.2A2.4579,2.4579,0,0,0,9.3877,12,2.4531,2.4531,0,0,0,10.1991,10.1787Z" fill="#e74c3c"/><path d="M17.2358,18.548a9.275,9.275,0,0,0,0-13.0957c-.0069-.0076-.0091-.0174-.0164-.0247s-.0171-.01-.0247-.0165a9.2752,9.2752,0,0,0-13.0956,0c-.0074.0068-.0172.0091-.0244.0163s-.01.017-.0163.0244a9.2753,9.2753,0,0,0,0,13.0962c.0067.0073.0089.017.016.0241s.0166.0092.0239.0159a9.2751,9.2751,0,0,0,13.0966,0c.0074-.0067.0171-.0089.0242-.016S17.2291,18.5554,17.2358,18.548Zm-.9218-1.7871a.64.64,0,1,0-.9056.9057l.4286.4286a7.9714,7.9714,0,0,1-4.5493,1.8862v-.608a.64.64,0,0,0-1.2808,0v.608a7.9708,7.9708,0,0,1-4.5492-1.8862l.4286-.4286a.64.64,0,1,0-.9056-.9057l-.4286.4286A7.9719,7.9719,0,0,1,2.6658,12.64h.6081a.64.64,0,0,0,0-1.2808H2.6658A7.9719,7.9719,0,0,1,4.5521,6.81l.4286.4286a.64.64,0,0,0,.9056-.9057l-.4285-.4285a7.9712,7.9712,0,0,1,4.5491-1.8862v.608a.64.64,0,1,0,1.2808,0v-.608a7.9715,7.9715,0,0,1,4.5492,1.8862l-.4285.4285a.64.64,0,0,0,.9056.9057l.4286-.4285A7.9721,7.9721,0,0,1,18.6288,11.36h-.608a.64.64,0,0,0,0,1.2808h.608A7.9718,7.9718,0,0,1,16.7426,17.19Z" fill="#2b96f0"/></svg>