<svg id="Layer_1" data-name="Layer 1" xmlns="http://www.w3.org/2000/svg" viewBox="0 0 24 24"><path d="M20.1119,2.6529H17.2791v-.628a.64.64,0,0,0-.64-.64H14.1631a2.3692,2.3692,0,0,0-4.31,0H7.3613a.64.64,0,0,0-.64.64v.628H3.8882a.64.64,0,0,0-.64.64V23.36a.64.64,0,0,0,.64.64H20.1119a.64.64,0,0,0,.64-.64V3.2933A.64.64,0,0,0,20.1119,2.6529Zm-12.11.0124h2.3123a.64.64,0,0,0,.6277-.5136,1.0883,1.0883,0,0,1,2.1328,0,.64.64,0,0,0,.6278.5136h2.2958V3.9214H8.0018Zm11.47,20.0539H4.5286V3.9338H6.7209v.628a.64.64,0,0,0,.64.64h9.2774a.64.64,0,0,0,.64-.64v-.628h2.1923Z"/><path d="M16.75,8.6539H11.6094a.64.64,0,1,1,0-1.2808H16.75a.64.64,0,0,1,0,1.2808Z"/><path d="M13.7629,11.44H7.25a.64.64,0,0,1,0-1.2808h6.5133a.64.64,0,0,1,0,1.2808Z"/><path d="M11.0957,14.2252H7.25a.64.64,0,1,1,0-1.2808h3.8461a.64.64,0,0,1,0,1.2808Z"/><path d="M8.7205,17.011H7.25a.64.64,0,0,1,0-1.2808H8.7205a.64.64,0,0,1,0,1.2808Z"/><path d="M7.6357,19.7966H7.25a.64.64,0,0,1,0-1.2808h.3861a.64.64,0,0,1,0,1.2808Z"/><path d="M18.5592,14.4676l-2.2953-2.2953a.64.64,0,0,0-.9057,0l-1.517,1.5171,0,0L9.6552,17.8753a.6473.6473,0,0,0-.08.0978c-.01.0155-.0174.0322-.0262.0483a.62.62,0,0,0-.0326.062.6133.6133,0,0,0-.02.0635c-.0056.0187-.0128.0367-.0166.056a.6419.6419,0,0,0-.0125.1235l0,.0019v2.2954a.64.64,0,0,0,.64.64h2.2953a.6374.6374,0,0,0,.1254-.0127c.0186-.0037.0358-.0106.0538-.0159a.6333.6333,0,0,0,.0658-.02.6414.6414,0,0,0,.0592-.0312c.0171-.0092.0348-.0168.0511-.0277a.6362.6362,0,0,0,.091-.0743l.0066-.0054,5.7032-5.7032a.64.64,0,0,0,0-.9057Zm-1.3585.4528-.6114.6115-1.39-1.39.6114-.6114Zm-6.4524,3.6731,3.5457-3.5456,1.39,1.39-3.5457,3.5457h-1.39Z"/><path d="M8.0018,3.9214h7.9965V2.6653H13.7024a.64.64,0,0,1-.6278-.5136,1.0883,1.0883,0,0,0-2.1328,0,.64.64,0,0,1-.6277.5136H8.0018Z" fill="#2b96f0"/><polygon points="10.748 18.594 14.294 15.048 15.684 16.438 12.138 19.983 10.748 19.983 10.748 18.594" fill="#e74c3c"/></svg>