<svg id="Layer_1" data-name="Layer 1" xmlns="http://www.w3.org/2000/svg" viewBox="0 0 24 24"><path d="M12,24A12,12,0,1,1,24,12,12.0136,12.0136,0,0,1,12,24ZM12,1.2808A10.7192,10.7192,0,1,0,22.7192,12,10.7314,10.7314,0,0,0,12,1.2808Z"/><path d="M13.5854,16.1255H12.64V10.5809A.64.64,0,0,0,12,9.94H10.4146a.64.64,0,0,0,0,1.2809h.945v4.9042h-.945a.64.64,0,0,0,0,1.2808h3.1708a.64.64,0,0,0,0-1.2808Z"/><path d="M17.2884,5.79a.6372.6372,0,0,1-.3912-.1338,8.0154,8.0154,0,0,0-9.7944,0,.64.64,0,0,1-.7834-1.0134,9.2967,9.2967,0,0,1,11.3612,0A.6405.6405,0,0,1,17.2884,5.79Z" fill="#2b96f0"/><path d="M5.15,17.9292a.6391.6391,0,0,1-.5071-.2487,9.2977,9.2977,0,0,1-.2653-11,.64.64,0,0,1,1.05.734,8.0165,8.0165,0,0,0,.2288,9.4831A.64.64,0,0,1,5.15,17.9292Z" fill="#2b96f0"/><path d="M12,21.2945a9.2385,9.2385,0,0,1-5.32-1.6722.64.64,0,1,1,.734-1.05,8.018,8.018,0,0,0,9.172,0,.64.64,0,1,1,.734,1.05A9.2385,9.2385,0,0,1,12,21.2945Z" fill="#2b96f0"/><path d="M18.85,17.9292a.64.64,0,0,1-.5061-1.0321,8.0165,8.0165,0,0,0,.2288-9.4831.64.64,0,0,1,1.05-.734,9.2975,9.2975,0,0,1-.2654,11A.6391.6391,0,0,1,18.85,17.9292Z" fill="#2b96f0"/><circle cx="12" cy="7.7656" r="1.1345" fill="#e74c3c"/></svg>