<svg xmlns="http://www.w3.org/2000/svg" viewBox="0 0 24 23.3472"><path d="M21.4034,15.8148l-.0025,0a9.86,9.86,0,0,0,.2078-2.01c0-.1515-.0051-.3016-.0113-.451-.002-.035-.0034-.07-.005-.1048-.0087-.1458-.0188-.2908-.0331-.4336-.002-.0253-.0061-.05-.0087-.0749-.0126-.1237-.0289-.2464-.0468-.3687-.0056-.0381-.01-.0748-.0163-.1119-.0208-.1356-.0448-.2685-.0718-.402-.0081-.0407-.0173-.08-.0255-.1211-.0224-.1054-.0468-.2108-.0728-.3148-.01-.04-.0188-.0785-.029-.1175l-.0052-.0165a9.8282,9.8282,0,0,0-1.7384-3.5186c-.0371-.0482-.0752-.0971-.1139-.145-.0337-.0412-.0658-.083-.1-.1244q-.1224-.1473-.25-.2882c-.0427-.0485-.0881-.0953-.1313-.1425-.05-.053-.1-.106-.1513-.1584-.05-.051-.1-.1014-.1514-.1514-.0463-.0462-.0942-.0911-.1415-.1359q-.1573-.1483-.32-.2884c-.0347-.03-.0692-.0611-.1039-.09-.0679-.0571-.136-.1115-.2053-.1662-.0347-.0278-.07-.0558-.1054-.0829-.0728-.057-.1472-.1131-.2222-.1675-.0192-.0143-.0391-.0275-.059-.0417-.2629-.19-.5354-.3648-.8165-.5282l-.0469-.027a9.944,9.944,0,0,0-1.2458-.6.1505.1505,0,0,1-.0225-.0092c-.1063-.0418-.2133-.0825-.3224-.1206h0a3.39,3.39,0,1,0-6.6874-.7839,3.4173,3.4173,0,0,0,.094.7839h.0008c-.1082.0376-.215.0788-.3221.1206l-.0235.01a9.9238,9.9238,0,0,0-1.2417.5974L6.8019,5.26q-.415.2406-.8043.5195c-.023.0173-.0468.0332-.0709.0509-.0727.0525-.1441.1069-.2159.1621-.0377.0294-.0754.0589-.1126.0889-.0666.053-.1338.106-.1991.1606-.0423.0367-.0841.0729-.1258.11-.1.0866-.1982.1758-.2944.266-.0505.0468-.1.0942-.15.1427s-.0989.0981-.1472.1475c-.053.0541-.1043.1076-.1553.1626-.0434.0463-.0867.092-.129.14q-.1278.1418-.2506.2891c-.0342.042-.0667.0841-.1009.1259-.0381.0479-.0763.0958-.113.1435a9.83,9.83,0,0,0-1.7384,3.5186l-.0051.0184c-.01.0377-.0188.0749-.028.112q-.04.1584-.0734.3173c-.0085.0418-.0177.0821-.0258.1228-.0265.1329-.05.2654-.0713.4-.0061.0387-.0118.0775-.0174.1157-.0173.1211-.0331.2418-.0464.364-.0026.0264-.0056.0521-.0085.0788-.0149.1425-.025.2864-.0333.4315-.002.0347-.0035.07-.0045.1055-.0071.1494-.0118.3-.0118.451,0,.18.0051.3573.0148.5342.0031.05.0076.0994.0113.1486.0086.128.0182.2557.032.3815.0061.055.0143.11.02.1635.0159.1208.0311.2419.05.3613.0093.0538.0194.1085.029.1616.0215.1186.0439.2361.07.3534.004.02.0071.0415.0116.0621A3.39,3.39,0,1,0,5.6868,21.6c.0159.0123.0322.0235.0484.0358.1188.09.2394.1779.3628.2643.0244.017.0488.0358.0737.0521a9.8941,9.8941,0,0,0,.9444.5714c.0352.0192.07.0358.1053.0539.1284.0665.2578.13.3893.19.0427.02.0861.0391.1293.0582.132.06.2652.1139.4.1678.0371.0145.0743.03.1116.0442a9.6679,9.6679,0,0,0,1.08.3384l.0544.0131q.2444.0591.4951.107l.0477.0083a9.7774,9.7774,0,0,0,3.619,0l.0793-.013c.0612-.0134.1228-.0257.1839-.0383.102-.0214.2024-.0441.302-.0694.0709-.0178.1423-.0366.2115-.0554.0836-.022.1655-.0456.2485-.0705.0591-.0174.1188-.0355.1774-.0539.1029-.0336.2047-.0676.3054-.1038.0663-.0235.1311-.05.1957-.0741.0754-.0279.15-.0568.2256-.0872.0581-.0253.1172-.0491.1752-.0745.0989-.0423.1967-.0871.294-.1323q.0969-.0462.193-.0955c.0658-.0322.1314-.0651.196-.1.0587-.0311.1171-.0618.1757-.0937q.1439-.08.2853-.1645c.06-.0358.1192-.0738.1787-.1106s.1152-.0727.1727-.1111.1146-.0745.1712-.1132c.0917-.064.1834-.128.2731-.1938.0539-.0409.1068-.0821.1609-.1233s.1069-.0836.16-.1259.1049-.0839.1564-.1266l.0118-.01a3.3884,3.3884,0,1,0,3.3218-5.5487ZM11.7394,1.2453a2.473,2.473,0,0,1,2.4168,2.9888,2.4446,2.4446,0,0,1-.213.5983,2.4682,2.4682,0,0,1-4.4078,0,2.4414,2.4414,0,0,1-.2134-.5983,2.5066,2.5066,0,0,1-.055-.5165A2.4725,2.4725,0,0,1,11.7394,1.2453ZM5.4109,20.53a2.4691,2.4691,0,1,1-2.4521-3.8536,2.5415,2.5415,0,0,1,.433-.04A2.4693,2.4693,0,0,1,5.4109,20.53Zm7.8132.46a9.8926,9.8926,0,0,0,.1837,1.8989,9.1742,9.1742,0,0,1-3.337,0,9.973,9.973,0,0,0,.1833-1.8989,9.8741,9.8741,0,0,0-7.4425-9.5654,9.1946,9.1946,0,0,1,1.5346-3.16,9.8607,9.8607,0,0,0,14.7862,0,9.2113,9.2113,0,0,1,1.534,3.16A9.8739,9.8739,0,0,0,13.2241,20.99Zm7.3848.5909a2.4586,2.4586,0,0,1-1.8519-.84,2.43,2.43,0,0,1-.3611-.5359,2.4651,2.4651,0,0,1,2.1365-3.5647c.0252-.0007.05-.0043.0765-.0043a2.4724,2.4724,0,0,1,0,4.9447Z" transform="translate(0 -0.3264)" fill="#0c99d6"/></svg>