<svg id="Layer_1" data-name="Layer 1" xmlns="http://www.w3.org/2000/svg" viewBox="0 0 24 24"><path d="M20.1119,2.6529H17.2791v-.628a.64.64,0,0,0-.64-.64H14.1631a2.3692,2.3692,0,0,0-4.31,0H7.3613a.64.64,0,0,0-.64.64v.628H3.8882a.64.64,0,0,0-.64.64V23.36a.64.64,0,0,0,.64.64H20.1119a.64.64,0,0,0,.64-.64V3.2933A.64.64,0,0,0,20.1119,2.6529Zm-12.11.0124h2.3123a.64.64,0,0,0,.6277-.5136,1.0883,1.0883,0,0,1,2.1328,0,.6406.6406,0,0,0,.6278.5136h2.2958V3.9214H8.0018Zm11.47,20.0539H4.5286V3.9338H6.7209v.628a.64.64,0,0,0,.64.64h9.2774a.64.64,0,0,0,.64-.64v-.628h2.1923Z"/><path d="M12,19.0187a5.3908,5.3908,0,1,1,5.3907-5.3908A5.3969,5.3969,0,0,1,12,19.0187ZM12,9.518a4.11,4.11,0,1,0,4.11,4.11A4.1146,4.1146,0,0,0,12,9.518Z"/><path d="M14.1347,12.9875H12.64V11.4932a.64.64,0,0,0-1.2808,0v1.4943H9.8652a.64.64,0,1,0,0,1.2808H11.36v1.4944a.64.64,0,0,0,1.2808,0V14.2683h1.4943a.64.64,0,0,0,0-1.2808Z" fill="#e74c3c"/><path d="M8.0018,3.9214h7.9965V2.6653H13.7024a.6406.6406,0,0,1-.6278-.5136,1.0883,1.0883,0,0,0-2.1328,0,.64.64,0,0,1-.6277.5136H8.0018Z" fill="#2b96f0"/></svg>