<svg id="Layer_1" data-name="Layer 1" xmlns="http://www.w3.org/2000/svg" viewBox="0 0 24 24"><path d="M12,12.64a.64.64,0,0,1-.64-.64V6.0511a.64.64,0,0,1,1.2808,0V12A.64.64,0,0,1,12,12.64Z"/><path d="M7.7934,16.847a.64.64,0,0,1-.4528-1.0933l4.2065-4.2066a.64.64,0,0,1,.9057.9057L8.2463,16.6594A.6383.6383,0,0,1,7.7934,16.847Z"/><path d="M12,24A12,12,0,0,1,2.8579,4.2263a.64.64,0,0,1,.9754.83,10.7193,10.7193,0,1,0,16.3332,0,.64.64,0,0,1,.9755-.83A12,12,0,0,1,12,24Z"/><path d="M12.64,2.7378V1.2808h1.6165a.64.64,0,0,0,0-1.2808H9.743a.64.64,0,0,0,0,1.2808H11.36v1.457A9.2893,9.2893,0,0,0,12,21.2947a.64.64,0,1,0,0-1.2808A8.0139,8.0139,0,1,1,20.0139,12a.64.64,0,1,0,1.2808,0A9.3,9.3,0,0,0,12.64,2.7378Z" fill="#2b96f0"/><path d="M13.7227,18.7611a.64.64,0,0,1-.64-.64v-4.398a.64.64,0,0,1,.9268-.5727l4.398,2.1991a.64.64,0,0,1,0,1.1454l-4.398,2.199A.638.638,0,0,1,13.7227,18.7611Zm.64-4.0022v2.3256l2.3256-1.1627Z" fill="#e74c3c"/></svg>