<svg id="Layer_1" data-name="Layer 1" xmlns="http://www.w3.org/2000/svg" viewBox="0 0 24 24"><path d="M12.56,12.3056a.635.635,0,0,0,.0319-.0606.6466.6466,0,0,0,.02-.0648c.0054-.0183.0124-.0358.0162-.0547A.6457.6457,0,0,0,12.64,12V6.0511a.64.64,0,0,0-1.2808,0v5.6836l-4.0189,4.019a.64.64,0,1,0,.9057.9057l4.2065-4.2065.0032-.0039a.6386.6386,0,0,0,.0765-.0937C12.5431,12.3394,12.55,12.3222,12.56,12.3056Z"/><path d="M12,24A12,12,0,0,1,2.8579,4.2263a.64.64,0,0,1,.9754.83,10.7193,10.7193,0,1,0,16.3332,0,.64.64,0,0,1,.9755-.83A12,12,0,0,1,12,24Z"/><path d="M12.64,2.7378V1.2808H14.257A.64.64,0,0,0,14.257,0H9.743a.64.64,0,0,0,0,1.2808H11.36v1.457A9.2893,9.2893,0,0,0,12,21.2947a.64.64,0,1,0,0-1.2808A8.0139,8.0139,0,1,1,20.0139,12a.64.64,0,1,0,1.2808,0A9.3,9.3,0,0,0,12.64,2.7378Z" fill="#2b96f0"/><path d="M18.1207,18.7611h-4.398a.64.64,0,0,1-.64-.64v-4.398a.64.64,0,0,1,.64-.64h4.398a.64.64,0,0,1,.64.64v4.398A.64.64,0,0,1,18.1207,18.7611ZM14.3631,17.48H17.48V14.3631H14.3631Z" fill="#e74c3c"/></svg>